<?xml version="1.0" encoding="utf-8"?>
<!-- Generator: Adobe Illustrator 22.0.1, SVG Export Plug-In . SVG Version: 6.00 Build 0)  -->
<svg version="1.1" id="Level11.Floor20" xmlns="http://www.w3.org/2000/svg" xmlns:xlink="http://www.w3.org/1999/xlink" x="0px"
	 y="0px" viewBox="0 0 1847.20544 1381.05945" style="enable-background:new 0 0 1847.20544 1381.05945;" xml:space="preserve">
<style type="text/css">
	.st0{fill:#BFBFBF;}
	.st1{fill:#848383;stroke:#000000;stroke-miterlimit:10;}
	.st2{fill:#9E9D9D;stroke:#000000;stroke-miterlimit:10;}
	.st3{fill:#DDDBDB;}
	.st4{fill:#999999;stroke:#000000;stroke-miterlimit:10;}
	.st5{fill:#B7B6B6;stroke:#000000;stroke-miterlimit:10;}
</style>
<rect id="CenturySquare.Level11.Floor20.Hall" x="943.42462" y="417.74777" class="st0" width="123.20197" height="404.57883"/>
<g id="CenturySquare.Level11.Floor20.Elevators">
	<polygon class="st1" points="1056.72681,448.77533 1056.72681,473.13293 1066.62659,473.13293 1066.62659,515.5567 
		1056.72681,515.5567 1056.72681,564.98322 1066.62659,564.98322 1066.62659,607.40698 1056.72681,607.40698 1056.72681,660.09851 
		1066.62659,660.09851 1066.62659,702.52234 1056.72681,702.52234 1056.72681,755.5639 1148.74561,755.5639 1148.74561,448.77533 	
		"/>
	<rect x="1066.62659" y="456.81253" class="st2" width="62.88313" height="75.06458"/>
	<rect x="1066.62659" y="549.26245" class="st2" width="62.88313" height="75.06458"/>
	<polygon class="st1" points="943.42462,702.52234 943.42462,660.09851 953.72302,660.09851 953.72302,607.40698 
		943.42462,607.40698 943.42462,564.98322 953.72302,564.98322 953.72302,448.77533 861.70422,448.77533 861.70422,755.5639 
		953.72302,755.5639 953.72302,702.52234 	"/>
	<rect x="880.5415" y="549.26245" class="st2" width="62.88313" height="75.06458"/>
	<rect x="1066.62659" y="641.7124" class="st2" width="62.88313" height="75.06458"/>
	<rect x="880.5415" y="641.7124" class="st2" width="62.88313" height="75.06458"/>
</g>
<polygon id="CenturySquare.Level11.Floor20.OpenArea" class="st3" points="1576.53186,417.27875 1576.53186,263.64087 
	1675.16577,263.64087 1675.16577,145.37366 1279.18274,145.37366 1279.18274,300.79077 1237.24646,300.79077 1237.24646,397.38831 
	1438.01855,397.38831 1438.01855,417.27875 "/>
<rect id="CenturySquare.Level11.Floor20.Kitchen" x="1237.24646" y="397.38834" class="st3" width="200.77211" height="142.75644"/>
<rect id="CenturySquare.Level11.Floor20.Henge" x="1381.03345" y="6.12996" class="st3" width="294.13229" height="139.24368"/>
<polygon id="CenturySquare.Level11.Floor20.ServerRoom" class="st3" points="1233.16577,520.17682 1233.16577,417.27875 
	1171.92236,417.27875 1171.92236,560.90649 1222.09888,560.90649 1222.09888,561.06445 1262.96143,561.06445 1262.96143,520.17682 
	"/>
<rect id="CenturySquare.Level11.Floor20.VRArea" x="1576.53186" y="263.64084" class="st3" width="97.24707" height="153.63789"/>
<rect id="CenturySquare.Level11.Floor20.Entry" x="949.31305" y="300.7908" class="st3" width="287.93338" height="117.42876"/>
<rect id="CenturySquare.Level11.Floor20.MusicRoom" x="1277.78662" y="6.71356" class="st3" width="103.88065" height="138.66008"/>
<rect id="CenturySquare.Level11.Floor20.Stone" x="848.54645" y="6.71356" class="st3" width="189.95064" height="138.69182"/>
<rect id="CenturySquare.Level11.Floor20.SpaceNeedle" x="1038.49707" y="6.71356" class="st3" width="137.23935" height="138.69182"/>
<rect id="CenturySquare.Level11.Floor20.MtBaker" x="1175.73645" y="6.71356" class="st3" width="101.13491" height="138.69182"/>
<polygon id="CenturySquare.Level11.Floor20.Office" class="st3" points="658.74426,147.27942 658.74426,6.71356 531.53125,6.71356 
	531.53125,206.27625 644.01624,206.27625 658.74426,206.27625 671.89233,206.27625 671.89233,147.27942 "/>
<polygon id="CenturySquare.Level11.Floor20.DevelopmentArea" class="st3" points="850.36536,145.4054 850.36536,9.29791 
	662.23364,9.29791 662.23364,145.4054 671.89233,145.4054 671.89233,210.36719 531.53125,210.36719 531.53125,418.37769 
	671.89233,418.37769 695.42572,418.37769 949.31299,418.37769 949.31299,145.4054 "/>
<rect id="CenturySquare.Level11.Floor20.QAArea" x="949.31305" y="145.40538" class="st3" width="329.86969" height="155.38542"/>
<rect id="CenturySquare.Level11.Floor20.KitchenTable" x="1268.03503" y="402.45029" class="st4" width="100.31705" height="31.95284"/>
<g id="Structures.Floor20">
	<polygon class="st4" points="1435.34119,448.77533 1435.34119,539.98193 1369.82471,539.98193 1369.82471,560.90649 
		1457.07837,560.90649 1457.07837,545.40546 1457.07837,539.98193 1457.07837,448.77533 	"/>
	<rect x="1237.24646" y="494.5907" class="st4" width="131.10568" height="22.7257"/>
	<rect x="522.7334" y="346.74146" class="st5" width="8.79789" height="66.38407"/>
	<rect x="522.7334" y="243.35211" class="st5" width="8.79789" height="66.38407"/>
	<rect x="522.7334" y="139.8922" class="st5" width="8.79789" height="66.38407"/>
	<rect x="522.7334" y="37.00246" class="st5" width="8.79789" height="66.38407"/>
	
		<rect x="588.20789" y="-28.29307" transform="matrix(6.123234e-17 -1 1 6.123234e-17 587.70789 597.5058)" class="st5" width="8.79789" height="66.38407"/>
	
		<rect x="691.02679" y="-28.29307" transform="matrix(6.123234e-17 -1 1 6.123234e-17 690.52673 700.32471)" class="st5" width="8.79789" height="66.38407"/>
	
		<rect x="794.32965" y="-28.29307" transform="matrix(6.123234e-17 -1 1 6.123234e-17 793.82965 803.62756)" class="st5" width="8.79789" height="66.38407"/>
	
		<rect x="897.56067" y="-28.29307" transform="matrix(6.123234e-17 -1 1 6.123234e-17 897.06061 906.85858)" class="st5" width="8.79789" height="66.38407"/>
	
		<rect x="1000.90613" y="-28.29307" transform="matrix(6.123234e-17 -1 1 6.123234e-17 1000.40607 1010.20398)" class="st5" width="8.79789" height="66.38407"/>
	
		<rect x="1103.78271" y="-28.29307" transform="matrix(6.123234e-17 -1 1 6.123234e-17 1103.28271 1113.08069)" class="st5" width="8.79789" height="66.38407"/>
	
		<rect x="1206.83008" y="-28.29307" transform="matrix(6.123234e-17 -1 1 6.123234e-17 1206.33008 1216.12793)" class="st5" width="8.79789" height="66.38407"/>
	
		<rect x="1309.86694" y="-28.29307" transform="matrix(6.123234e-17 -1 1 6.123234e-17 1309.36682 1319.16479)" class="st5" width="8.79789" height="66.38407"/>
	
		<rect x="1413.05396" y="-28.29307" transform="matrix(6.123234e-17 -1 1 6.123234e-17 1412.55396 1422.35193)" class="st5" width="8.79789" height="66.38407"/>
	
		<rect x="1516.36865" y="-28.29307" transform="matrix(6.123234e-17 -1 1 6.123234e-17 1515.86865 1525.6665)" class="st5" width="8.79789" height="66.38407"/>
	
		<rect x="1619.35742" y="-28.29307" transform="matrix(6.123234e-17 -1 1 6.123234e-17 1618.8573 1628.65527)" class="st5" width="8.79789" height="66.38407"/>
	<rect x="522.7334" y="413.12552" class="st1" width="26.08119" height="26.08119"/>
	<rect x="522.7334" y="309.73618" class="st1" width="21.04366" height="37.00528"/>
	<rect x="522.7334" y="206.80771" class="st1" width="21.04366" height="37.00528"/>
	<rect x="522.7334" y="103.38652" class="st1" width="21.04366" height="35.97422"/>
	<polygon class="st1" points="559.73865,0.5 543.77704,0.5 522.73334,0.5 522.73334,21.5437 522.73334,37.00244 543.77704,37.00244 
		543.77704,21.5437 559.73865,21.5437 	"/>
	
		<rect x="633.49445" y="-7.19556" transform="matrix(6.123234e-17 -1 1 6.123234e-17 632.99445 655.03815)" class="st1" width="21.04366" height="36.43481"/>
	
		<rect x="736.55536" y="-7.19556" transform="matrix(6.123234e-17 -1 1 6.123234e-17 736.0553 758.099)" class="st1" width="21.04366" height="36.43481"/>
	
		<rect x="839.84357" y="-7.19556" transform="matrix(6.123234e-17 -1 1 6.123234e-17 839.34351 861.38721)" class="st1" width="21.04366" height="36.43481"/>
	
		<rect x="943.11047" y="-7.19556" transform="matrix(6.123234e-17 -1 1 6.123234e-17 942.61047 964.65417)" class="st1" width="21.04366" height="36.43481"/>
	
		<rect x="1046.07251" y="-7.19556" transform="matrix(6.123234e-17 -1 1 6.123234e-17 1045.57251 1067.61609)" class="st1" width="21.04366" height="36.43481"/>
	
		<rect x="1149.18347" y="-7.19556" transform="matrix(6.123234e-17 -1 1 6.123234e-17 1148.68347 1170.72717)" class="st1" width="21.04366" height="36.43481"/>
	
		<rect x="1252.22559" y="-7.19556" transform="matrix(6.123234e-17 -1 1 6.123234e-17 1251.72559 1273.76929)" class="st1" width="21.04366" height="36.43481"/>
	
		<rect x="1355.15344" y="-7.19556" transform="matrix(6.123234e-17 -1 1 6.123234e-17 1354.65344 1376.69714)" class="st1" width="21.04366" height="36.43481"/>
	
		<rect x="1458.8363" y="-7.19556" transform="matrix(6.123234e-17 -1 1 6.123234e-17 1458.3363 1480.38)" class="st1" width="21.04366" height="36.43481"/>
	
		<rect x="1561.65515" y="-7.19556" transform="matrix(6.123234e-17 -1 1 6.123234e-17 1561.15515 1583.19885)" class="st1" width="21.04366" height="36.43481"/>
	
		<rect x="1664.64392" y="-7.19556" transform="matrix(6.123234e-17 -1 1 6.123234e-17 1664.14392 1686.18762)" class="st1" width="21.04366" height="36.43481"/>
	<polygon class="st1" points="670.60504,206.27626 670.60504,202.19135 674.40509,202.19135 674.40509,210.3672 543.77704,210.3672 
		543.77704,206.80771 	"/>
	<polygon class="st1" points="821.63293,421.8985 821.63293,448.56854 840.32294,467.25854 860.69293,467.25854 
		878.96295,448.98853 953.72302,448.98853 953.72302,412.44852 949.31305,412.44852 949.31305,418.37772 548.81458,418.37772 
		548.81458,422.10852 	"/>
	<polygon class="st1" points="949.31305,382.41849 953.72302,382.41849 953.72302,304.08841 1281.53333,304.08841 
		1281.53333,180.81827 1277.12341,180.81827 1277.12341,300.7908 949.31305,300.7908 	"/>
	<polygon class="st1" points="662.31396,143.00275 662.23364,21.5437 658.74426,21.5437 658.74426,91.35815 658.74426,105.26257 
		658.74426,111.3075 658.74426,129.78821 658.74426,146.80273 681.08392,146.80273 681.08392,143.00275 	"/>
	<rect x="848.54645" y="21.5437" class="st1" width="3.69399" height="125.25903"/>
	<polygon class="st1" points="1041.94495,143.10883 1041.94495,21.5437 1038.37695,21.5437 1038.37695,147.27942 
		1038.49707,147.27942 1041.94495,147.27942 1047.18799,147.27942 1047.18799,143.10883 	"/>
	<polygon class="st1" points="1178.03699,143.22797 1178.03699,21.5437 1173.73706,21.5437 1173.73706,143.22797 
		1077.45496,143.22797 1077.45496,147.27942 1183.27002,147.27942 1183.27002,143.22797 	"/>
	<polygon class="st1" points="1344.80176,143.22797 1280.96484,143.22797 1280.96484,21.5437 1276.66492,21.5437 
		1276.66492,143.22797 1213.56372,143.22797 1213.56372,147.27942 1276.66492,147.27942 1276.66492,150.96692 1280.96484,150.96692 
		1280.96484,147.27942 1344.80176,147.27942 	"/>
	<polygon class="st1" points="1379.4906,21.5437 1379.4906,143.22797 1375.23853,143.22797 1375.23853,147.27942 
		1383.79053,147.27942 1383.79053,145.25366 1383.79053,143.22797 1383.79053,21.5437 	"/>
	<polygon class="st1" points="1677.34875,417.27875 1677.34875,21.5437 1673.77893,21.5437 1673.77893,417.27875 
		1437.00806,417.27875 1437.00806,439.85779 1437.00806,449.57935 1457.07837,469.6496 1457.07837,560.90649 1369.82471,560.90649 
		1369.82471,517.31641 1237.24646,517.31641 1237.24646,418.21954 1223.44812,418.21954 1223.44812,421.66913 1233.48328,421.66913 
		1233.48328,520.13879 1262.96143,520.13879 1262.96143,561.06445 1171.92236,561.06445 1171.92236,466.70667 1188.96667,449.66241 
		1189.44751,422.35962 1192.86707,422.35962 1192.86707,417.65771 1056.72681,417.65771 1056.72681,473.4389 1060.36011,473.4389 
		1060.36011,448.79321 1131.10168,449.28845 1148.52002,466.70667 1148.84058,466.70667 1148.84058,561.06445 1148.84058,564.05652 
		1148.84058,564.98322 1262.96143,564.98322 1265.10474,564.98322 1462.40955,564.98322 1462.40955,467.25854 1479.65735,467.25854 
		1496.96411,449.95178 1496.96411,439.85779 1750.29211,439.85779 1750.29211,417.27875 	"/>
	<rect x="1035.40796" y="417.74777" class="st5" width="21.31893" height="4.57231"/>
	<rect x="953.72302" y="417.74777" class="st5" width="21.31893" height="4.57231"/>
	<polygon class="st1" points="1632.39514,258.94452 1632.39514,161.40643 1634.82922,161.40643 1634.82922,155.49506 
		1607.35852,155.49506 1607.35852,263.64087 1634.82922,263.64087 1634.82922,258.94452 	"/>
	<rect x="1613.44385" y="161.40643" class="st4" width="18.95129" height="97.3642"/>
</g>
</svg>
