<svg xmlns="http://www.w3.org/2000/svg" viewBox="0 0 723.56269 739.75881">
  <defs>
    <style>
      .cls-1 {
        fill: #dddbdb;
      }

      .cls-2, .cls-5 {
        fill: #b7b6b6;
      }

      .cls-3 {
        fill: none;
      }

      .cls-3, .cls-4, .cls-5, .cls-6 {
        stroke: #000;
        stroke-linecap: round;
        stroke-linejoin: round;
      }

      .cls-4 {
        fill: #848383;
      }

      .cls-6 {
        fill: #999;
      }
    </style>
  </defs>
  <title>Level11.Floor30,GroupTest</title>
  <g id="Layer_2" data-name="Layer 2">
    <g id="Level11.Floor30">
      <g id="Walkable">
        <g id="ADA">
          <g id="FoodDining">
            <polygon id="CenturySquare.Level11.Floor30.Kitchen" class="cls-1" points="564.962 311.508 564.962 262.857 415.133 262.857 415.133 473.423 574.239 473.423 574.239 311.508 564.962 311.508"/>
          </g>
          <g id="WorkSpace">
            <polygon id="CenturySquare.Level11.Floor30.FinancialArea" class="cls-1" points="652.306 65.26 366.923 65.26 366.923 213.57 366.923 226.332 366.923 262.857 567.64 262.857 567.64 226.332 652.306 226.332 652.306 65.26"/>
            <rect id="CenturySquare.Level11.Floor30.ExecutiveArea" class="cls-1" x="5.60979" y="65.25966" width="361.31351" height="197.59733"/>
          </g>
          <g id="MeetingSpace">
            <rect id="CenturySquare.Level11.Floor30.PenthouseOffice" class="cls-1" x="5.61115" y="262.18817" width="329.83391" height="184.51273"/>
          </g>
          <g id="CommonSpace">
            <polygon id="CenturySquare.Level11.Floor30.Library" class="cls-1" points="651.348 488.109 565.256 488.109 565.256 476.436 411.708 476.436 411.708 675.243 565.256 675.243 565.256 674.869 651.348 674.869 651.348 488.109"/>
            <path id="CenturySquare.Level11.Floor30.Lounge" class="cls-1" d="M336.743,446.69188H5.21491V675.24116H219.50838s5.42992-75.38727,102.99022-102.63547l14.2444.27458Z"/>
          </g>
          <g id="Storage">
            <polygon id="CenturySquare.Level11.Floor30.Closet" class="cls-1" points="652.306 288.919 652.306 228.675 570.532 228.675 570.532 310.449 579.18 310.449 579.18 323.555 652.306 323.555 652.306 288.919 652.306 288.919"/>
          </g>
          <g id="Restroom">
            <rect id="CenturySquare.Level11.Floor30.Restroom" class="cls-1" x="574.23893" y="387.56898" width="118.94645" height="97.90313"/>
          </g>
          <rect id="CenturySquare.Level11.Floor30.Hall" class="cls-1" x="574.23893" y="323.55549" width="80.81276" height="64.02211"/>
          <path id="CenturySquare.Level11.Floor30.Walkway" class="cls-1" d="M335.44509,262.857V634.58088s51.55639,4.80307,54.76075,40.66194h21.50248V262.857Z"/>
        </g>
      </g>
      <g id="NotWalkable">
        <g id="Structures.Floor30">
          <rect class="cls-2" x="695.93812" y="382.30443" width="24.04473" height="105.97613"/>
          <path class="cls-2" d="M651.34365,679.76379l.0045,54.21545-84.40181-.72166s-37.73678-3.147-36.31394-53.49379Z"/>
          <g>
            <path class="cls-3" d="M125.51364,447.81592h90.42141"/>
            <polyline class="cls-3" points="215.932 450.079 125.513 450.079 125.513 447.833"/>
            <path class="cls-3" d="M215.93505,447.81592v2.26319M171.116,447.81648v2.26263"/>
          </g>
          <g>
            <line class="cls-3" x1="125.51366" y1="266.32501" x2="215.8584" y2="266.33182"/>
            <polyline class="cls-3" points="215.932 264.071 125.513 264.071 125.513 266.327"/>
            <path class="cls-3" d="M215.93505,266.3323v-2.25819m-44.81909,2.254v-2.254"/>
          </g>
          <path class="cls-2" d="M652.29262,59.98861l.0045-54.21546-84.40181.72167s-37.73679,3.147-36.31395,53.49379Z"/>
          <polygon class="cls-4" points="406.202 261.058 406.202 283.648 411.706 283.648 411.706 321.305 417.215 321.305 417.215 266.327 503.696 266.327 503.7 261.058 406.202 261.058 406.202 261.058"/>
          <polygon class="cls-4" points="80.695 441.421 62.616 441.421 62.616 451.963 80.7 451.963 80.695 441.421"/>
          <polygon class="cls-4" points="279.619 442.546 260.745 442.546 260.745 453.088 279.623 453.088 279.619 442.546"/>
          <polygon class="cls-4" points="339.375 421.467 339.375 453.093 318.931 453.088 318.931 442.546 329.151 442.546 329.151 421.467 339.375 421.467"/>
          <polyline class="cls-4" points="318.931 261.058 339.375 261.058 339.375 291.181 329.151 291.181 329.151 271.6 318.931 271.6 318.931 261.054"/>
          <polyline class="cls-4" points="718.157 387.568 652.306 387.568 652.306 374.767 657.802 374.767 657.806 374.776 657.806 382.304 723.063 382.304 723.063 490.744 656.236 490.744 656.232 490.74 656.232 674.869 650.727 674.869 650.727 485.476 718.157 485.471 718.157 387.854"/>
          <rect class="cls-4" x="638.14766" y="382.30443" width="14.15403" height="5.27316"/>
          <rect class="cls-4" x="632.64128" y="321.30013" width="19.66089" height="5.28179"/>
          <polygon class="cls-4" points="417.215 392.088 417.215 471.163 565.027 471.168 565.022 471.544 565.022 476.817 565.027 476.441 417.211 476.441 417.215 490.744 411.706 490.744 411.711 452.339 406.202 452.339 406.202 429.74 411.706 429.74 411.706 392.093 417.215 392.088"/>
          <polygon class="cls-4" points="80.695 262.188 61.822 262.188 61.826 272.73 80.7 272.73 80.695 262.188"/>
          <polygon class="cls-4" points="279.619 262.188 260.745 262.188 260.745 272.73 279.623 272.73 279.619 262.188"/>
          <polygon class="cls-4" points="579.181 382.304 590.971 382.304 590.971 387.568 579.961 387.573 579.966 485.476 650.727 485.471 650.727 490.749 650.727 490.74 565.022 490.74 565.027 402.639 573.672 402.639 573.672 378.533 579.181 378.533 579.181 382.304"/>
          <polyline class="cls-4" points="573.645 333.353 579.181 333.353 579.181 326.582 585.475 326.582 585.475 321.3 579.181 321.3 579.181 309.252 570.531 309.252 570.531 228.675 652.302 228.675 652.302 223.402 564.941 223.402 564.972 260.609 550.873 260.609 550.868 266.327 565.027 266.327 565.027 313.781 573.676 313.776 573.672 333.353"/>
          <polygon class="cls-4" points="339.37 336.366 329.151 336.366 329.151 376.278 339.375 376.278 339.37 336.366"/>
          <polyline class="cls-4" points="24.098 452.888 24.098 442.351 10.72 442.351 10.72 429.745 0.5 429.745 0.5 453.252 24.098 453.088"/>
          <polyline class="cls-4" points="0.5 278.266 0.505 261.054 23.308 261.063 23.303 261.054 23.303 271.6 10.72 271.6 10.72 278.38 0.5 278.38"/>
          <polygon class="cls-5" points="0.5 278.38 10.72 278.38 10.72 429.745 0.5 429.745 0.5 278.38"/>
          <polyline class="cls-4" points="221.014 679.766 0.5 679.766 0.5 453.252 5.215 453.22 5.215 675.246 5.215 675.241 215.505 675.241 215.505 675.246 220.082 659.668 225.798 644.847 233.658 630.523 242.143 618.199 253.332 606.232 269.672 593.178 284.999 585.339 303.153 577.841 322.499 572.606 340.767 572.082 340.927 585.601 335.418 585.601 335.418 578.768 323.499 578.836 304.5 584.518 287.521 591.879 271.816 600.501 256.305 611.637 243.584 625.591 236.022 637.303 229.732 651.627 224.797 665.694 221.005 679.766"/>
          <polyline class="cls-4" points="527.194 679.766 532.004 679.766 532.004 688.801 533.474 700.091 533.574 700.854 537.204 712.457 544.765 721.638 553.464 728.712 565.19 733.232 579.176 733.981 650.727 733.986 650.727 679.766 387.226 679.766 387.226 673.884 383.394 664.207 377.902 656.17 369.395 648.39 358.188 643.453 345.88 640.355 335.441 639.854 335.445 639.854 335.445 634.898 335.445 634.581 346.45 635.082 360.041 637.428 372.54 643.627 382.617 653.906 388.553 663.694 392.704 672.41 392.704 675.246 656.223 675.241 656.232 739.259 656.232 739.254 574.461 739.254 561.887 737.748 550.873 733.232 540.653 725.704 533.574 716.664 528.859 705.364 527.343 694.469 527.289 694.069 527.284 679.766"/>
          <polyline class="cls-4" points="657.797 329.591 657.797 65.262 652.302 65.257 652.306 329.586 657.802 329.586"/>
          <rect class="cls-6" x="301.42905" y="336.36628" width="27.72183" height="39.91168"/>
          <path class="cls-4" d="M698.69086,485.47211V387.57389l-5.50548-.00138v97.8996Z"/>
          <rect class="cls-5" x="24.09759" y="443.39838" width="37.72438" height="6.60505"/>
          <rect class="cls-5" x="80.70004" y="443.39838" width="44.81273" height="6.60505"/>
          <rect class="cls-5" x="215.93235" y="443.39838" width="44.81273" height="6.60505"/>
          <rect class="cls-5" x="280.41504" y="443.39838" width="37.72438" height="6.60505"/>
          <rect class="cls-5" x="24.09759" y="264.15653" width="37.72438" height="6.60505"/>
          <rect class="cls-5" x="80.70004" y="264.15653" width="44.81273" height="6.60505"/>
          <rect class="cls-5" x="215.93235" y="264.15653" width="44.81273" height="6.60505"/>
          <rect class="cls-5" x="280.41504" y="264.15653" width="37.72438" height="6.60505"/>
          <polyline class="cls-4" points="652.293 59.989 0.5 59.989 0.5 261.054 5.22 261.054 5.22 261.058 5.215 65.257 657.806 65.262 657.806 0.505 657.806 0.5 574.461 0.5 561.878 2.755 550.877 7.28 540.653 14.05 533.579 23.848 528.859 34.376 527.289 46.429 527.289 58.21 532.789 58.21 532.789 45.93 534.663 32.457 537.581 26.652 544.388 17.576 554.789 10.579 566.134 6.608 579.181 5.769 652.297 5.773 652.302 59.989"/>
        </g>
        <g id="Tables">
          <rect id="CenturySquare.Level11.Floor30.PenthouseTable" class="cls-6" x="43.35231" y="313.77159" width="229.84834" height="78.31676"/>
          <polygon id="CenturySquare.Level11.Floor30.KitchenCounter" class="cls-6" points="493.479 264.072 448.663 264.072 430.877 264.072 406.201 264.072 406.201 429.745 448.663 429.745 448.663 296.453 493.479 296.453 493.479 264.072"/>
        </g>
      </g>
    </g>
  </g>
</svg>
